<?xml version="1.0" standalone="no"?>
<!DOCTYPE svg PUBLIC "-//W3C//DTD SVG 20010904//EN"
 "http://www.w3.org/TR/2001/REC-SVG-20010904/DTD/svg10.dtd">
<svg version="1.0" xmlns="http://www.w3.org/2000/svg"
 width="64.000000pt" height="64.000000pt" viewBox="0 0 64.000000 64.000000"
 preserveAspectRatio="xMidYMid meet">

<g transform="translate(0.000000,64.000000) scale(0.100000,-0.100000)"
fill="#000000" stroke="none">
<path d="M228 610 c-77 -23 -128 -95 -128 -180 0 -54 10 -81 43 -117 l20 -22
-29 -11 c-33 -13 -64 -38 -64 -53 0 -6 8 -3 18 5 9 9 32 23 50 32 30 15 34 15
65 -1 40 -21 122 -21 163 0 39 20 63 8 35 -17 -48 -43 -50 -122 -4 -176 l25
-30 -181 0 -181 0 -16 25 c-12 18 -15 36 -10 66 4 27 3 38 -4 34 -5 -3 -10
-28 -10 -55 0 -41 4 -52 26 -69 25 -20 39 -21 246 -21 238 0 267 5 306 55 16
20 22 41 22 74 -1 87 -48 131 -142 131 -55 0 -80 11 -57 26 19 11 49 87 49
126 1 121 -125 214 -242 178z m131 -25 c113 -58 128 -213 27 -290 -110 -84
-276 -1 -276 138 0 51 40 118 86 144 46 27 121 30 163 8z m212 -351 c76 -73
28 -194 -78 -194 -38 0 -50 5 -79 34 -39 39 -45 86 -19 136 33 65 121 77 176
24z"/>
<path d="M467 243 c-4 -3 -7 -16 -7 -28 0 -17 -8 -24 -30 -29 -17 -3 -33 -12
-36 -21 -8 -21 14 -45 42 -45 17 0 23 -6 26 -26 6 -55 68 -54 68 2 0 17 6 23
28 26 21 2 28 9 30 31 3 23 -1 28 -26 33 -23 5 -31 13 -36 35 -4 22 -11 29
-29 29 -13 0 -27 -3 -30 -7z m43 -39 c4 -23 12 -30 35 -34 41 -7 40 -34 -2
-38 -29 -3 -33 -7 -33 -33 0 -24 -4 -30 -17 -27 -11 2 -19 14 -21 30 -2 21 -9
28 -30 30 -16 2 -28 10 -30 21 -3 13 3 17 27 17 27 0 31 3 31 28 0 51 31 56
40 6z"/>
<path d="M45 200 c-3 -5 -1 -10 4 -10 6 0 11 5 11 10 0 6 -2 10 -4 10 -3 0 -8
-4 -11 -10z"/>
</g>
</svg>
